<?xml version="1.0" encoding="utf-8"?>
<!-- Generator: Adobe Illustrator 19.0.1, SVG Export Plug-In . SVG Version: 6.00 Build 0)  -->
<svg version="1.1" id="Слой_1" xmlns="http://www.w3.org/2000/svg" xmlns:xlink="http://www.w3.org/1999/xlink" x="0px" y="0px"
	 viewBox="0 0 1920 1080" style="enable-background:new 0 0 1920 1080;" xml:space="preserve">
<style type="text/css">
	.st0{fill:#92C1D6;}
</style>
<path id="XMLID_14_" class="st0" d="M0,357.3c12.8,2,34.4-11.2,55.5-16.4c31.5-7.6,55.2-5.2,81.7,6.9c27.1,12.3,46.6,39.6,81.9,32.5
	c19.3-3.9,67.9-39.8,127.1-53.2c40.4-9.1,60.6-13.7,85.4-16.7c51.1-6.3,89.1-4.2,137.9-1.3c75.4,4.5,132.3,14.4,147.1,17.1
	c35.6,6.4,82.5,18.8,174.7,43.3c68.2,18.1,102.3,27.2,128.7,35.5c45.1,14.1,64.8,22,147.1,48.6c62.6,20.2,73.4,22.8,84.1,25
	c48.5,9.8,87.3,17.7,130,3.9c46.8-15.1,74.6-50.1,90.6-69.6c22.8-27.9,32.8-52,39.4-65.7c43.3-90.2,136.9-142.8,177.3-165.5
	c92.7-52.1,183.2-62,231.5-64V0.4L0.7,0L0,357.3z"/>
</svg>
