<?xml version="1.0" encoding="utf-8"?>
<!-- Generator: Adobe Illustrator 19.0.1, SVG Export Plug-In . SVG Version: 6.00 Build 0)  -->
<svg version="1.1" id="Слой_1" xmlns="http://www.w3.org/2000/svg" xmlns:xlink="http://www.w3.org/1999/xlink" x="0px" y="0px"
	 viewBox="0 0 1000 1000" style="enable-background:new 0 0 512 512;" xml:space="preserve">
<style type="text/css">
	.st0{fill:none; stroke:black;}
</style>
<polygon class="st0" points="435.9,274.8 448.8,275.4 444.5,268.8 444.5,268.8 463.1,270.5 482.3,237.7 529.8,259.3 580.7,267
	632.6,281.3 618.2,301.3 590.1,319.3 550.3,322.7 559.2,370.7 553,389.1 598,405.2 598.8,434.5 550,439 590.9,473.8 618,485
	605.2,509 610.9,534.3 582.8,552.9 508.8,538.6 412.7,556.6 349.3,572.8 276.8,537.4 192.4,564.1 131.2,530.5 176.4,501.3
	202.6,492.4 212.4,483.9 214.5,478.8 211.1,473.7 212.8,465.3 239.9,424.6 223,394.9 240.8,362.7 239.1,319.5 310,308.1
	316.8,317.9 354.9,307.5 371.1,298.4 383.9,303 384.1,294 402.1,283.3 424.5,283.5 "/>
<polygon class="st0" points="131.2,530.5 126.1,533.1 95.9,538.5 56.5,527.5 17.6,546.5 -29.4,545.7 -50.7,556.4 -105.8,535.3
	-180.9,540.5 -214.1,493.3 -192.1,467.1 -239.6,458.5 -256.7,427.9 -287.8,402.8 -289.5,383.9 -305,365.2 -260,332.8 -227.8,340.7
	-208.8,313.4 -161.5,288.8 -154.9,288.1 -155,278.1 -136.6,264.9 -119.2,273.1 -105.1,273 -98.4,278.4 -63,275.8 -48.9,283.8
	-54.3,298.6 -99.1,317.4 -101.5,320.8 -74.3,326.5 -52.6,322.4 -43.5,333.1 -19,330.8 19.5,319.5 35.5,321.2 61.3,303 95,300.8
	106,320.8 99.6,337 135.4,335.8 146.8,321.5 163.3,330.9 182.3,332 187.7,339.4 238,312.1 239.1,319.5 240.8,362.7 223,394.9
	239.9,424.6 212.8,465.3 211.1,473.7 214.5,478.8 212.4,483.9 202.6,492.4 176.4,501.3 "/>
<polygon class="st0" points="-165.8,284.9 -194.8,258.8 -215.6,250.9 -241.9,215.8 -197.4,215.6 -156,197.8 -155.6,173.3
	-172,144.6 -156,137.2 -117.7,140.3 -69.5,87.9 -2.8,60.3 -9.1,21.6 14.7,18 17.3,14.8 110.3,15.4 114.4,9 112.9,4.8 104,5
	100.1,-2.8 90.2,-2.5 84.9,-15.1 76.3,-16.3 59.5,-34.4 40.1,-30.3 31.4,-37.6 52.6,-48.3 75.6,-44.8 128.4,-61.9 178.8,-62.2
	218,-69.8 249.9,-85.9 269.4,-77.1 333.3,-77.3 348.5,-68.7 396.8,-65.5 457.6,-31.3 500.1,-27.3 518.5,-39.4 561.3,-21.2
	573.8,-2.5 628.7,-13 656.3,-23.5 708.5,-22.8 810.7,-51.8 811.7,-42.8 807,-20.4 781.7,-0.3 771.1,18.9 747.1,31.3 655.5,52.7
	651.2,54.9 632.5,72.4 624.3,90.8 575.8,96.8 541.3,107.1 512,101.3 444.3,126.9 419.3,107.3 404,86.6 356.4,82.9 320.2,89.6
	335.8,176.6 350.5,216.1 370.4,202.1 410.5,224.5 382.5,249 413.1,274.6 428.6,275.9 424.8,278.8 401.3,278.5 379.6,290.9
	379.9,297.2 369.8,293.7 348.8,305.1 317.5,313.2 310.9,303.8 241.3,313.8 240.8,306.8 188.7,336.7 183.8,329.8 164.3,328.1
	145.8,317.8 134,332.4 104.4,333.4 109.6,320.3 97.3,297.5 61.1,299.5 34.6,318.2 19,316.3 -19.6,327.8 -42.4,330.1 -51.3,319
	-73.6,323.6 -94.6,319.6 -52.1,301.2 -44.1,282.5 -62.3,272.2 -97.4,275.8 -103.7,270.1 -118.5,270 -136.4,261.3 -157.9,275.5
	-157.4,285.1 "/>
</svg>
