<?xml version="1.0" encoding="utf-8"?>
<!-- Generator: Adobe Illustrator 19.0.1, SVG Export Plug-In . SVG Version: 6.00 Build 0)  -->
<svg version="1.1"
	 id="Слой_1" xmlns:rdf="http://www.w3.org/1999/02/22-rdf-syntax-ns#" xmlns:svg="http://www.w3.org/2000/svg" xmlns:inkscape="http://www.inkscape.org/namespaces/inkscape" xmlns:cc="http://creativecommons.org/ns#" xmlns:dc="http://purl.org/dc/elements/1.1/" xmlns:sodipodi="http://sodipodi.sourceforge.net/DTD/sodipodi-0.dtd"
	 xmlns="http://www.w3.org/2000/svg" xmlns:xlink="http://www.w3.org/1999/xlink" x="0px" y="0px" viewBox="-909 1938 100 125"
	 style="enable-background:new -909 1938 100 125;" xml:space="preserve">
<style type="text/css">
	.st0{fill:#909CCA;}
</style>
<g transform="translate(0,-952.36218)">
	<g>
		<path class="st0" d="M-893.2,2900c-1,0.1-1.8,1-1.8,2v11c0,1.1,0.9,2,2,2s2-1,2-2v-9h35v17c0,1,1,2,2,2h17v9.8
			c-3.3-1.8-7-2.8-11-2.8c-6.5,0-12.3,2.7-16.5,7c-5.9,0-11.8,0-17.7,0c-1.1,0-2,1-1.9,2.1c0,1.1,1.1,2,2.1,1.9h14.4
			c-1.3,2.1-2.3,4.5-2.8,7c-3.9,0-7.9,0-11.8,0c-1,0-2,1-1.9,2.1c0,1,1,2,2.1,1.9h11c0,0.3,0,0.7,0,1c0,2.1,0.3,4.1,0.8,6
			c-4,0-8,0-12,0c-1,0-2,1-1.9,2.1c0,1,1,2,2.1,1.9h13.3c1.3,2.7,3,5,5.2,7H-882c-0.1,0-0.1,0-0.2,0c-1,0-2,1-1.9,2.1
			c0,1,1,2,2.1,1.9h24.6c2.9,1.3,6,2,9.4,2c4,0,7.7-1,11-2.8v6.8h-54v-59c0-1.1-1.1-2.2-2.2-2c-1,0.1-1.8,1-1.8,2v61c0,1,1,2,2,2h58
			c1,0,2-1,2-2v-11.2l12.6,12.6c0.7,0.8,2.1,0.8,2.9,0c0.7-0.8,0.7-2.1,0-2.9l-12.8-12.8c3.4-4,5.4-9.2,5.4-14.8
			c0-7-3.1-13.2-8-17.4V2920c0-0.5-0.2-1.1-0.6-1.4l-18-18c-0.4-0.4-0.9-0.6-1.4-0.6h-40C-893.1,2900-893.1,2900-893.2,2900z
			 M-852,2905.8l13.2,13.2H-852V2905.8z M-848,2934c10.5,0,19,8.5,19,19c0,3.9-1.2,7.5-3.2,10.5c-0.6-3.5-2.8-6.5-5.8-8.1
			c0.6-1.3,0.9-2.8,0.9-4.4c0-6.1-4.9-11-11-11c-6.1,0-11,4.9-11,11c0,1.6,0.3,3.1,0.9,4.4c-3,1.6-5.2,4.6-5.8,8.1
			c-2-3-3.2-6.6-3.2-10.5C-867,2942.5-858.5,2934-848,2934z M-848,2944c3.9,0,7,3.1,7,7s-3.1,7-7,7c-3.9,0-7-3.1-7-7
			C-855,2947.1-851.9,2944-848,2944z M-855.8,2958.8c2,2,4.8,3.2,7.8,3.2c3,0,5.8-1.2,7.8-3.2c2.4,1.1,4.2,3.6,4.2,6.6v2.4
			c-3.3,2.7-7.4,4.2-12,4.2s-8.7-1.6-12-4.2v-2.4C-860,2962.4-858.2,2959.8-855.8,2958.8L-855.8,2958.8z"/>
	</g>
</g>
</svg>
