<?xml version="1.0" encoding="utf-8"?>
<!-- Generator: Adobe Illustrator 19.0.1, SVG Export Plug-In . SVG Version: 6.00 Build 0)  -->
<svg version="1.1" id="Слой_1" xmlns="http://www.w3.org/2000/svg" xmlns:xlink="http://www.w3.org/1999/xlink" x="0px" y="0px"
	 viewBox="-703 1681 512 640" style="enable-background:new -703 1681 512 640;" xml:space="preserve">
<style type="text/css">
	.st0{fill:#0FAD8C;}
</style>
<g>
	<g>
		<path class="st0" d="M-217.6,2174.6V1922c0-69.9-6.3-121.8-16.5-183l-1.1-6.8h-79.4l-1.1,6.8c-8.5,50.7-14.2,95.2-15.9,148.8
			l-115.4-90.6v90.1l-114.7-90.1v90.1l-114.7-90.1v377.4H-701v16.4h508v-16.4H-217.6z M-300.8,1748.5h51.6
			c9.5,57.4,15.2,107.3,15.2,173.5v7h-81.9v-7C-315.9,1855.8-310.1,1805.9-300.8,1748.5z M-430.6,1831l98.3,77.3v20.7h-98.3
			L-430.6,1831L-430.6,1831z M-545.3,1831l98.3,77.3v20.7h-98.3V1831z M-660,1831l98.3,77.3v20.7H-660V1831z M-373.3,2174.6h-65.5
			v-131.1h65.5V2174.6z M-455.2,2174.6h-65.6v-131.1h65.6L-455.2,2174.6L-455.2,2174.6z M-234,2174.6h-122.9v-147.5h-180.2v147.5
			H-660v-229.2h426V2174.6z"/>
		<rect x="-455.2" y="1978" class="st0" width="16.4" height="16.4"/>
		<rect x="-422.4" y="1978" class="st0" width="16.4" height="16.4"/>
		<rect x="-488" y="1978" class="st0" width="16.4" height="16.4"/>
		<path class="st0" d="M-635.5,2133.6h65.5v-65.5h-65.5V2133.6z M-619.1,2084.5h32.8v32.8h-32.8V2084.5z"/>
		<path class="st0" d="M-324.1,2133.6h65.5v-65.5h-65.5V2133.6z M-307.7,2084.5h32.8v32.8h-32.8V2084.5z"/>
	</g>
</g>
</svg>
