<?xml version="1.0" standalone="no"?>
<!DOCTYPE svg PUBLIC "-//W3C//DTD SVG 20010904//EN"
 "http://www.w3.org/TR/2001/REC-SVG-20010904/DTD/svg10.dtd">
<svg version="1.0" xmlns="http://www.w3.org/2000/svg"
 width="1247.000000pt" height="1247.000000pt" viewBox="0 0 1247.000000 1247.000000"
 preserveAspectRatio="xMidYMid meet">
<metadata>
Created by potrace 1.11, written by Peter Selinger 2001-2013
</metadata>
<g transform="translate(0.000000,1247.000000) scale(0.100000,-0.100000)"
fill="#000000" stroke="none">
<path d="M6897 10146 c-58 -125 -144 -232 -269 -332 -74 -59 -231 -163 -323
-214 -33 -18 -64 -36 -70 -40 -15 -11 -161 -88 -320 -168 -468 -237 -706 -394
-930 -615 -206 -205 -308 -395 -354 -665 -20 -118 -25 -354 -10 -462 16 -113
19 -133 40 -230 32 -145 36 -160 59 -235 12 -38 25 -83 30 -100 13 -50 87
-241 137 -352 66 -148 188 -386 200 -390 9 -3 30 52 39 105 3 13 21 71 41 130
62 185 154 334 288 467 97 98 117 114 225 186 178 118 328 195 627 320 332
139 382 166 479 263 119 119 190 311 238 646 11 74 19 231 20 367 l1 143 35
-6 c375 -66 637 -292 816 -704 70 -162 136 -390 149 -514 3 -21 7 -57 11 -80
7 -52 7 -253 0 -336 -50 -527 -346 -1025 -786 -1317 -396 -264 -926 -376
-1356 -288 -402 84 -767 353 -1063 785 -32 47 -91 137 -130 200 -316 504 -652
731 -1031 698 -139 -13 -382 -72 -485 -118 -11 -5 -48 -21 -83 -35 -61 -25
-103 -44 -297 -135 -205 -96 -401 -169 -505 -188 -74 -14 -195 -12 -252 3 -27
6 -48 9 -48 6 0 -10 47 -56 226 -227 404 -383 573 -515 808 -629 274 -133 373
-120 746 104 74 44 228 116 332 155 273 102 455 89 648 -44 114 -80 207 -183
415 -459 l139 -184 70 -32 c144 -66 185 -75 326 -75 l130 0 112 -69 112 -69
135 3 c104 2 143 7 166 19 17 9 57 32 90 51 65 37 82 40 129 25 17 -5 58 -18
92 -29 87 -27 160 -20 304 30 94 32 101 38 166 152 38 66 48 77 67 72 29 -6
79 -13 152 -20 l60 -6 96 73 c174 132 160 114 189 256 18 90 29 126 40 128 56
9 206 46 211 52 20 23 102 148 138 208 31 53 41 79 37 100 -2 16 -9 61 -16 99
-20 131 -26 117 80 187 l95 63 18 65 c9 36 26 108 37 160 l19 95 -39 75 c-21
41 -49 93 -61 116 l-22 40 62 82 c34 45 66 84 70 87 5 2 7 15 6 27 -1 13 -6
54 -10 92 -3 38 -12 105 -19 149 -13 79 -14 81 -67 126 -30 25 -73 64 -97 86
l-42 40 35 104 35 103 -28 62 c-15 33 -49 103 -77 153 l-50 93 -90 35 c-50 19
-96 35 -101 35 -6 0 -19 9 -31 19 -16 16 -20 33 -22 102 -1 46 -3 94 -4 106
-2 26 -64 93 -158 174 -35 29 -70 60 -77 67 -7 6 -34 12 -60 13 -26 1 -85 2
-131 3 -80 1 -85 2 -94 26 -5 14 -13 34 -17 45 -5 11 -19 46 -31 78 -13 32
-28 62 -34 67 -15 13 -197 90 -212 90 -8 0 -13 13 -14 33 0 17 -2 40 -4 50 -2
10 -6 55 -10 100 -3 45 -8 89 -10 97 -2 8 -7 50 -10 93 -4 43 -8 86 -10 95 -1
9 -6 50 -10 89 -4 40 -8 81 -10 90 -2 10 -4 28 -4 41 -2 37 -18 25 -44 -32z"/>
<path d="M11780 5821 c-24 -59 -92 -109 -285 -211 -160 -85 -209 -116 -281
-183 -163 -150 -171 -361 -28 -675 21 -45 40 -82 44 -82 4 0 13 21 21 48 38
138 123 215 350 317 67 30 133 64 147 77 74 68 101 247 78 515 -4 46 -9 93
-12 105 -2 13 -5 42 -6 66 -2 53 -12 61 -28 23z"/>
<path d="M300 4792 l-95 -3 -58 -57 -58 -57 5 -78 c26 -365 26 -1511 0 -1967
l-5 -85 57 -52 c56 -52 58 -52 108 -47 61 6 484 6 540 -1 l38 -4 -7 57 c-10
71 -12 93 -20 162 -3 30 -8 66 -10 80 -4 29 -14 145 -23 275 -4 50 -7 128 -7
174 l0 85 65 2 c622 24 992 213 1099 559 28 88 35 150 34 261 -2 116 -24 208
-75 306 -108 209 -379 360 -688 384 -95 7 -720 12 -900 6z m576 -206 c183 -38
338 -147 409 -286 76 -150 82 -375 15 -528 -75 -168 -278 -293 -515 -316 l-30
-3 1 146 c3 249 15 874 19 921 2 25 3 53 4 63 1 19 20 19 97 3z"/>
<path d="M2369 4729 c-31 -32 -55 -59 -54 -61 10 -9 28 -672 28 -1028 0 -361
-18 -1078 -28 -1088 -2 -2 18 -22 43 -45 26 -23 52 -47 59 -53 8 -8 61 -12
145 -13 73 -1 171 -4 218 -8 47 -4 109 -7 139 -7 l54 -1 114 200 c63 110 129
225 146 256 227 402 623 1087 626 1083 11 -11 0 -1054 -15 -1411 l-5 -122 38
4 c55 7 409 6 474 0 l55 -6 53 56 53 55 -7 163 c-4 89 -9 218 -11 287 -6 185
-6 1115 0 1265 8 189 18 409 19 415 1 3 -11 19 -26 36 -15 17 -33 39 -41 49
-11 16 -33 18 -192 21 -98 2 -212 6 -252 8 l-73 6 -83 -128 c-45 -70 -129
-210 -186 -312 -57 -102 -158 -279 -224 -395 -65 -115 -157 -277 -204 -360
-47 -82 -109 -193 -139 -245 -29 -52 -58 -102 -63 -110 -6 -8 -20 -34 -32 -57
-12 -24 -26 -43 -31 -43 -7 0 -5 88 9 320 3 41 7 357 11 702 l5 627 -63 -5
c-83 -6 -391 -7 -455 -1 -49 4 -49 4 -105 -54z"/>
<path d="M6046 4777 c-20 -14 -19 -39 1 -224 3 -29 1 -54 -3 -54 -5 -1 -43 -2
-84 -4 -122 -4 -299 -15 -312 -20 -7 -2 -31 -6 -53 -9 -303 -37 -581 -247
-681 -513 -42 -110 -54 -194 -50 -338 5 -149 28 -237 90 -348 126 -226 419
-394 771 -442 111 -16 165 -20 289 -24 l39 -1 -7 -122 c-3 -68 -10 -146 -14
-175 -10 -61 -5 -74 28 -67 34 7 578 6 624 -1 35 -6 36 -5 32 20 -3 15 -8 88
-11 163 -4 75 -8 147 -10 160 -3 20 1 22 38 23 611 13 1024 244 1127 628 24
92 32 249 17 357 -29 213 -157 412 -347 540 -98 65 -248 123 -363 139 -27 3
-58 8 -70 11 -32 6 -211 16 -309 18 -79 1 -91 5 -90 26 5 94 15 217 19 223 3
5 -3 17 -13 28 -15 16 -26 18 -83 13 -36 -3 -77 -8 -91 -10 -33 -5 -278 -5
-310 0 -85 15 -156 16 -174 3z m5 -481 c14 -150 19 -990 7 -1201 -4 -66 -7
-120 -7 -121 -5 -6 -122 12 -176 26 -221 59 -360 243 -391 520 -21 176 8 395
66 513 53 108 148 195 254 234 90 32 245 50 247 29z m832 -11 c266 -67 391
-284 382 -665 -3 -151 -19 -234 -63 -332 -81 -184 -241 -293 -454 -311 -27 -2
-48 -4 -49 -3 -17 19 -17 1287 0 1333 2 7 132 -10 184 -22z"/>
<path d="M8288 4731 l-56 -58 3 -59 c26 -433 26 -1595 0 -2006 l-4 -67 56 -50
56 -51 171 7 c222 9 945 9 1198 0 186 -7 197 -6 190 10 -4 10 -36 75 -72 145
l-65 127 -40 -4 c-84 -9 -330 -17 -562 -20 l-243 -2 -1 46 c-1 86 -9 475 -13
604 -4 143 -3 144 71 151 50 4 112 -15 206 -64 43 -22 88 -40 100 -40 51 1
147 65 270 180 l59 56 -46 1 c-29 1 -78 16 -129 38 -233 103 -318 107 -413 18
-37 -34 -94 -107 -94 -121 0 -5 -7 -15 -16 -22 -14 -12 -15 10 -9 226 3 131 8
353 10 492 3 139 7 257 9 261 6 9 464 6 644 -3 81 -5 122 -4 122 3 0 6 24 60
54 120 29 60 56 116 59 125 6 15 -8 16 -151 11 -188 -7 -934 -7 -1152 0 l-155
4 -57 -58z"/>
<path d="M10237 4733 l-59 -56 6 -145 c25 -605 25 -1166 0 -1832 l-6 -156 54
-50 54 -51 139 -2 c77 -1 169 -4 205 -7 36 -3 96 -6 134 -7 l68 -2 38 65 c151
263 657 1150 756 1324 83 147 94 161 95 126 7 -154 -5 -1148 -17 -1393 l-5
-117 43 5 c60 6 390 7 464 0 l61 -6 51 55 c45 48 56 64 54 86 -1 21 -15 332
-17 400 -5 127 -5 1171 -1 1275 2 50 7 169 10 265 l6 175 -40 44 -40 43 -177
4 c-98 2 -211 6 -250 8 l-73 6 -48 -73 c-86 -127 -175 -277 -295 -497 -17 -30
-84 -149 -150 -265 -66 -115 -178 -313 -250 -440 -71 -126 -137 -241 -146
-255 -9 -14 -28 -46 -41 -72 -14 -27 -29 -48 -33 -48 -7 0 -4 99 10 324 2 39
6 353 10 698 l5 627 -58 -5 c-82 -6 -422 -6 -464 1 -32 4 -40 0 -93 -52z"/>
</g>
</svg>
