<?xml version="1.0" encoding="utf-8"?>
<!-- Generator: Adobe Illustrator 19.0.1, SVG Export Plug-In . SVG Version: 6.00 Build 0)  -->
<svg version="1.1" id="Слой_1" xmlns="http://www.w3.org/2000/svg" xmlns:xlink="http://www.w3.org/1999/xlink" x="0px" y="0px"
	 viewBox="-927 1961 64 80" style="enable-background:new -927 1961 64 80;" xml:space="preserve">
<style type="text/css">
	.st0{fill:#84D84E;}
</style>
<g>
	<path class="st0" d="M-887.7,1987.8h-1.4c2-1.7,3.4-4.2,3.4-7v-2c0-5-4-9-9-9s-9,4-9,9v2c0,2.8,1.3,5.3,3.4,7h-1.4c-5,0-9,4-9,9v10
		c0,3.3,2.7,6,6,6v19h20v-19c3.3,0,6-2.7,6-6v-10C-878.7,1991.8-882.7,1987.8-887.7,1987.8z M-895.7,2014.8v11h-7v-15h16v15h-7v-11
		H-895.7z M-902.7,2008.8v-12.2c1.2-0.4,2-1.5,2-2.8v-4h1.6l4.4,4.4l4.4-4.4h1.6v4c0,1.3,0.8,2.4,2,2.8v12.2H-902.7z M-893.1,1989.8
		l-1.6,1.6l-1.6-1.6H-893.1z M-894.7,1971.8c3.8,0,7,3.1,7,7c-2.2-0.2-4.1-1.4-5.1-3.4l-0.9-1.8l-0.9,1.8c-1.1,2.1-3.2,3.4-5.6,3.4
		h-1.5C-901.7,1974.9-898.6,1971.8-894.7,1971.8z M-901.7,1980.8h1.5c2.6,0,4.9-1.2,6.5-3.1c1.4,1.8,3.6,3,6,3.1l0,0
		c0,3.9-3.1,7-7,7S-901.7,1984.7-901.7,1980.8z M-902.7,1989.9v3.9c0,0.6-0.4,1-1,1h-1v10h-4v-8
		C-908.7,1993.3-906.1,1990.4-902.7,1989.9z M-908.7,2006.8h4v4C-906.9,2010.8-908.7,2009-908.7,2006.8z M-902.7,2029.8v-2h7v2
		H-902.7z M-893.7,2029.8v-2h7v2H-893.7z M-884.7,2010.8v-4h4C-880.7,2009-882.5,2010.8-884.7,2010.8z M-880.7,2004.8h-4v-10h-1
		c-0.6,0-1-0.4-1-1v-3.9c3.4,0.5,6,3.4,6,6.9V2004.8z"/>
	<rect x="-892.7" y="1995.8" class="st0" width="4" height="2"/>
</g>
</svg>
