<?xml version="1.0" encoding="utf-8"?>
<!-- Generator: Adobe Illustrator 19.0.1, SVG Export Plug-In . SVG Version: 6.00 Build 0)  -->
<svg version="1.1" id="Слой_1" xmlns="http://www.w3.org/2000/svg" xmlns:xlink="http://www.w3.org/1999/xlink" x="0px" y="0px"
	 viewBox="-909 1938 100 125" style="enable-background:new -909 1938 100 125;" xml:space="preserve">
<style type="text/css">
	.st0{fill:#06B005;}
</style>
<title>document</title>
<desc>Created with Sketch.</desc>
<g>
	<path class="st0" d="M-887.5,1966v61h49v-61H-887.5z M-889,1963h52c0.8,0,1.5,0.7,1.5,1.5v64c0,0.8-0.7,1.5-1.5,1.5h-52
		c-0.8,0-1.5-0.7-1.5-1.5v-64C-890.5,1963.7-889.8,1963-889,1963z"/>
	<path class="st0" d="M-833.5,2032v-62.5c0-0.8,0.7-1.5,1.5-1.5c0.8,0,1.5,0.7,1.5,1.5v64c0,0.8-0.7,1.5-1.5,1.5h-52
		c-0.8,0-1.5-0.7-1.5-1.5s0.7-1.5,1.5-1.5H-833.5z"/>
	<path class="st0" d="M-828.5,2037v-62.5c0-0.8,0.7-1.5,1.5-1.5c0.8,0,1.5,0.7,1.5,1.5v64c0,0.8-0.7,1.5-1.5,1.5h-52
		c-0.8,0-1.5-0.7-1.5-1.5s0.7-1.5,1.5-1.5H-828.5z"/>
	<path class="st0" d="M-881.5,1991c-0.6,0-1-0.4-1-1s0.4-1,1-1h21c0.6,0,1,0.4,1,1s-0.4,1-1,1H-881.5z"/>
	<path class="st0" d="M-881.5,1983c-0.6,0-1-0.4-1-1s0.4-1,1-1h10.5c0.6,0,1,0.4,1,1s-0.4,1-1,1H-881.5z"/>
	<path class="st0" d="M-881.5,1996c-0.6,0-1-0.4-1-1s0.4-1,1-1h35.5c0.6,0,1,0.4,1,1s-0.4,1-1,1H-881.5z"/>
	<path class="st0" d="M-881.5,2001c-0.6,0-1-0.4-1-1s0.4-1,1-1h35.5c0.6,0,1,0.4,1,1s-0.4,1-1,1H-881.5z"/>
	<path class="st0" d="M-881.5,2006c-0.6,0-1-0.4-1-1s0.4-1,1-1h20.5c0.6,0,1,0.4,1,1s-0.4,1-1,1H-881.5z"/>
	<path class="st0" d="M-845.8,2020c0.6,0,1,0.4,1,1s-0.4,1-1,1H-861c-0.6,0-1-0.4-1-1s0.4-1,1-1H-845.8z"/>
	<path class="st0" d="M-850,1989c0.6,0,1,0.4,1,1s-0.4,1-1,1h-6c-0.6,0-1-0.4-1-1s0.4-1,1-1H-850z"/>
</g>
</svg>
