<?xml version="1.0" encoding="utf-8"?>
<!-- Generator: Adobe Illustrator 19.0.1, SVG Export Plug-In . SVG Version: 6.00 Build 0)  -->
<svg version="1.1" id="Слой_1" xmlns="http://www.w3.org/2000/svg" xmlns:xlink="http://www.w3.org/1999/xlink" x="0px" y="0px"
	 viewBox="-909 1938 100 125" style="enable-background:new -909 1938 100 125;" xml:space="preserve">
<style type="text/css">
	.st0{fill:#0BB891;}
</style>
<g>
	<path class="st0" d="M-822.9,1980.7h-26.5v3.5h15.9c0.1,1.5,0.6,3,1.3,4.4c0.9,1.8,2.1,3.6,3.8,5.2c1.5,1.5,3.2,2.8,4.9,3.6
		c1.4,0.7,2.7,1.1,4.1,1.4v14.9c-1.4,0.2-2.7,0.7-4.1,1.4c-1.7,0.9-3.4,2.1-4.9,3.6c-1.6,1.6-2.9,3.4-3.8,5.2
		c-0.7,1.5-1.2,3-1.3,4.4H-876c-0.1-1.5-0.6-3-1.3-4.4c-0.9-1.8-2.1-3.6-3.8-5.2c-1.5-1.5-3.2-2.8-4.9-3.6c-1.4-0.7-2.7-1.1-4.1-1.4
		v-14.9c1.3-0.2,2.7-0.7,4.1-1.4c1.7-0.9,3.4-2.1,4.9-3.6c1.6-1.6,2.9-3.4,3.8-5.2c0.7-1.5,1.2-3,1.3-4.4h15.8v-3.5h-26.4
		c-3.9,0-7.1,3.2-7.1,7.1v37.1c0,3.9,3.2,7.1,7.1,7.1h63.6c3.9,0,7.1-3.2,7.1-7.1v-37.1C-815.9,1983.9-819.1,1980.7-822.9,1980.7z
		 M-821.9,1994.4c-1.4-0.7-2.8-1.7-4-3c-1.4-1.4-2.4-2.8-3.1-4.3c-0.5-1-0.8-2-0.9-2.9h7c1,0,1.8,0.4,2.5,1c0.6,0.6,1,1.5,1,2.5v7.5
		C-820.2,1995.1-821,1994.8-821.9,1994.4z M-889,1985.3c0.6-0.6,1.5-1,2.5-1h7c-0.1,0.9-0.4,1.9-0.9,2.9c-0.7,1.4-1.7,2.9-3.1,4.3
		c-1.3,1.3-2.7,2.3-4,3c-0.9,0.4-1.7,0.7-2.5,0.9v-7.6C-890.1,1986.8-889.7,1985.9-889,1985.3z M-889,2027.4c-0.6-0.6-1-1.5-1-2.5
		v-7.5c0.8,0.2,1.6,0.5,2.5,0.9c1.4,0.7,2.8,1.7,4,3c1.4,1.4,2.4,2.8,3.1,4.3c0.5,1,0.8,2,0.9,2.9h-7
		C-887.5,2028.4-888.4,2028-889,2027.4z M-820.4,2027.4c-0.6,0.6-1.5,1-2.5,1h-7c0.1-0.9,0.4-1.9,0.9-2.9c0.7-1.4,1.7-2.9,3.1-4.3
		c1.3-1.3,2.7-2.3,4-3c0.9-0.4,1.7-0.7,2.5-0.9v7.5C-819.4,2025.9-819.8,2026.7-820.4,2027.4z"/>
	<path class="st0" d="M-865.4,2006.4c0,5.9,4.8,10.7,10.7,10.7s10.7-4.8,10.7-10.7c0-5.9-4.8-10.7-10.7-10.7
		C-860.6,1995.8-865.4,2000.5-865.4,2006.4z M-847.6,2006.4c0,2-0.8,3.8-2.1,5.1c-1.3,1.3-3.1,2.1-5.1,2.1s-3.8-0.8-5.1-2.1
		c-1.3-1.3-2.1-3.1-2.1-5.1s0.8-3.8,2.1-5.1c1.3-1.3,3.1-2.1,5.1-2.1s3.8,0.8,5.1,2.1C-848.4,2002.7-847.6,2004.5-847.6,2006.4z"/>
	<path class="st0" d="M-860.3,1968.9L-860.3,1968.9l3.8-3.8v26c0,1,0.8,1.8,1.8,1.8s1.8-0.8,1.8-1.8v-26l3.8,3.8
		c0.7,0.7,1.8,0.7,2.5,0c0.7-0.7,0.7-1.8,0-2.5l-8.1-8.1l-8.1,8.1c-0.7,0.7-0.7,1.8,0,2.5C-862.1,1969.6-861,1969.6-860.3,1968.9z"
		/>
	<circle class="st0" cx="-873.1" cy="1994.7" r="2.9"/>
	<circle class="st0" cx="-836.3" cy="2017.9" r="2.9"/>
	<path class="st0" d="M-829.2,2036.1c-0.6,0.6-1.5,1-2.5,1h-63.6c-1,0-1.8-0.4-2.5-1c-0.6-0.7-1-1.5-1-2.5v-37.1c0-1,0.4-1.8,1-2.5
		c0.6-0.6,1.5-1,2.5-1v-3.5c-3.9,0-7.1,3.2-7.1,7.1v37.1c0,3.9,3.2,7.1,7.1,7.1h63.6c3.9,0,7.1-3.2,7.1-7.1h-3.5
		C-828.1,2034.6-828.5,2035.4-829.2,2036.1z"/>
</g>
</svg>
