<?xml version="1.0" encoding="utf-8"?>
<!-- Generator: Adobe Illustrator 19.0.1, SVG Export Plug-In . SVG Version: 6.00 Build 0)  -->
<svg version="1.1"
	 id="Слой_1" xmlns:rdf="http://www.w3.org/1999/02/22-rdf-syntax-ns#" xmlns:svg="http://www.w3.org/2000/svg" xmlns:inkscape="http://www.inkscape.org/namespaces/inkscape" xmlns:cc="http://creativecommons.org/ns#" xmlns:dc="http://purl.org/dc/elements/1.1/" xmlns:sodipodi="http://sodipodi.sourceforge.net/DTD/sodipodi-0.dtd"
	 xmlns="http://www.w3.org/2000/svg" xmlns:xlink="http://www.w3.org/1999/xlink" x="0px" y="0px" viewBox="-943 1981 32 40"
	 style="enable-background:new -943 1981 32 40;" xml:space="preserve">
<style type="text/css">
	.st0{fill:#06AF03;}
</style>
<g transform="translate(0,-1020.3622)">
	<g>
		<path class="st0" d="M-935,3004.4c-1.1,0-2,0.9-2,2v22c0,1.1,0.9,2,2,2h16c1.1,0,2-0.9,2-2v-18.5c0,0,0,0,0,0c0,0,0,0,0,0
			c0,0,0,0,0,0c0,0,0,0,0,0c0-0.1-0.1-0.3-0.2-0.3l-4.9-4.9c0,0,0,0,0,0c-0.1-0.1-0.2-0.2-0.4-0.2H-935z M-935,3005.4h12v3
			c0,1.1,0.9,2,2,2h3v18c0,0.6-0.4,1-1,1h-16c-0.6,0-1-0.4-1-1v-22C-936,3005.8-935.6,3005.4-935,3005.4z M-922,3006.1l3.3,3.3h-2.3
			c-0.6,0-1-0.4-1-1V3006.1z M-932.5,3015.4c-0.3,0-0.5,0.2-0.5,0.5c0,0.3,0.2,0.5,0.5,0.5h6.6h4.4c0.3,0,0.5-0.2,0.5-0.5
			c0-0.3-0.2-0.5-0.5-0.5c0,0,0,0,0,0h-4.4H-932.5C-932.5,3015.4-932.5,3015.4-932.5,3015.4z M-932.5,3017.4c-0.3,0-0.5,0.2-0.5,0.5
			c0,0.3,0.2,0.5,0.5,0.5h6.6h4.4c0.3,0,0.5-0.2,0.5-0.5c0-0.3-0.2-0.5-0.5-0.5c0,0,0,0,0,0h-4.4H-932.5
			C-932.5,3017.4-932.5,3017.4-932.5,3017.4z M-932.5,3019.4c-0.3,0-0.5,0.2-0.5,0.5c0,0.3,0.2,0.5,0.5,0.5h6.6h4.4
			c0.3,0,0.5-0.2,0.5-0.5c0-0.3-0.2-0.5-0.5-0.5c0,0,0,0,0,0h-4.4H-932.5C-932.5,3019.4-932.5,3019.4-932.5,3019.4z M-932.5,3021.4
			c-0.3,0-0.5,0.2-0.5,0.5c0,0.3,0.2,0.5,0.5,0.5h4.4h2.6c0.3,0,0.5-0.2,0.5-0.5c0-0.3-0.2-0.5-0.5-0.5c0,0,0,0,0,0h-2.6H-932.5
			C-932.5,3021.4-932.5,3021.4-932.5,3021.4z M-923.6,3021.4c-0.3,0-0.5,0.2-0.5,0.5c0,0.3,0.2,0.5,0.5,0.5l0,0
			c0.3,0,0.5-0.2,0.5-0.5C-923,3021.6-923.2,3021.4-923.6,3021.4C-923.5,3021.4-923.5,3021.4-923.6,3021.4
			C-923.5,3021.4-923.5,3021.4-923.6,3021.4z"/>
	</g>
</g>
</svg>
