<?xml version="1.0" encoding="utf-8"?>
<!-- Generator: Adobe Illustrator 19.0.1, SVG Export Plug-In . SVG Version: 6.00 Build 0)  -->
<svg version="1.1" id="Слой_1" xmlns="http://www.w3.org/2000/svg" xmlns:xlink="http://www.w3.org/1999/xlink" x="0px" y="0px"
	 viewBox="-902 1930.2 113.4 141.8" style="enable-background:new -902 1930.2 113.4 141.8;" xml:space="preserve">
<style type="text/css">
	.st0{fill:#0F8047;}
</style>
<path class="st0" d="M-798.4,1997l-6.4-2.5v-10.3c2.5-0.7,4.4-3.1,4.4-5.9v-2.8c0-0.1,0-0.1,0-0.2v-0.1c0-0.2-0.1-0.3-0.1-0.5l0,0
	c-0.1-0.2-0.2-0.3-0.3-0.4c0,0,0,0,0-0.1l-13-16.1c0,0,0,0-0.1-0.1c0-0.1-0.1-0.1-0.1-0.1l-0.1-0.1c-0.1,0-0.1-0.1-0.2-0.1
	c-0.1,0-0.1-0.1-0.2-0.1c-0.1,0-0.1-0.1-0.2-0.1s-0.1,0-0.2-0.1c-0.1,0-0.1,0-0.2,0c-0.1,0-0.1,0-0.2,0h-0.1h-1
	c-0.7-1.8-2.5-3.1-4.6-3.1s-3.8,1.3-4.5,3.1h-2.8c-0.7-1.8-2.5-3.1-4.5-3.1s-3.8,1.3-4.5,3.1h-2.8c-0.8-1.8-2.6-3.1-4.6-3.1
	s-3.8,1.3-4.5,3.1h-2.8c-0.8-1.8-2.5-3.1-4.6-3.1s-3.8,1.3-4.5,3.1h-2.8c-0.7-1.8-2.5-3.1-4.6-3.1s-3.8,1.3-4.5,3.1h-1
	c-0.6,0-1.2,0.3-1.6,0.7l-13,16.2c0,0,0,0,0,0.1c-0.1,0.1-0.2,0.3-0.3,0.4l0,0c-0.1,0.1-0.1,0.3-0.1,0.5v0.1c0,0.1,0,0.1,0,0.2v2.8
	c0,2.8,1.9,5.1,4.4,5.9v10.3l-6.4,2.5c-0.8,0.3-1.3,1-1.3,1.9v11.8c0,0.8,0.5,1.6,1.3,1.9l6.4,2.5v16c0,5.9,4.8,10.7,10.7,10.8v5.4
	c0,1.1,0.9,2,2,2h14c1.1,0,2-0.9,2-2v-5.4h22.4v5.4c0,1.1,0.9,2,2,2h14c1.1,0,2-0.9,2-2v-5.4c5.9-0.1,10.7-4.9,10.7-10.8v-16
	l6.4-2.5c0.8-0.3,1.3-1,1.3-1.9v-11.9C-797.2,1998-797.7,1997.3-798.4,1997z M-816.1,1961.8l9.5,11.8h-9.5V1961.8z M-821.8,1959.2
	c0-0.5,0.4-0.9,0.9-0.9s0.9,0.4,0.9,0.9v14.4h-1.8L-821.8,1959.2L-821.8,1959.2z M-828,1973.5v-12.1h2.1v12.1H-828z M-833.7,1959.2
	c0-0.5,0.4-0.9,0.9-0.9s0.9,0.4,0.9,0.9v14.4h-1.8L-833.7,1959.2L-833.7,1959.2z M-839.8,1973.5v-12.1h2.1v12.1H-839.8z
	 M-845.6,1959.2c0-0.5,0.4-0.9,0.9-0.9s0.9,0.4,0.9,0.9v14.4h-1.8C-845.6,1973.5-845.6,1959.2-845.6,1959.2z M-851.7,1973.5v-12.1
	h2.1v12.1H-851.7z M-857.5,1959.2c0-0.5,0.4-0.9,0.9-0.9s0.9,0.4,0.9,0.9v14.4h-1.8C-857.5,1973.5-857.5,1959.2-857.5,1959.2z
	 M-863.6,1973.5v-12.1h2.1v12.1H-863.6z M-869.3,1959.2c0-0.5,0.4-0.9,0.9-0.9s0.9,0.4,0.9,0.9v14.4h-1.8
	C-869.3,1973.5-869.3,1959.2-869.3,1959.2z M-873.3,1961.8v11.8h-9.5L-873.3,1961.8z M-885,1977.5h13.7h5.8h6.1h5.8h6.1h5.8h6.1h5.8
	h6.1h5.8h13.5v0.8c0,1.2-1,2.1-2.1,2.1h-0.3h-75.8h-0.3c-1.2,0-2.1-1-2.1-2.1L-885,1977.5L-885,1977.5z M-888.2,2009.3v-9.1l3.6-1.4
	v12L-888.2,2009.3z M-859.9,2045.3h-10v-3.4h10V2045.3z M-819.5,2045.3h-10v-3.4h10V2045.3z M-808.8,2031c0,3.8-3.1,6.8-6.8,6.8
	h-1.8h-14h-26.5h-14h-1.8c-3.8,0-6.8-3.1-6.8-6.8v-17.4v-17.8v-11.4h71.8v11.4v17.8v17.4H-808.8z M-801.2,2009.3l-3.6,1.4v-12
	l3.6,1.4V2009.3z M-814.3,1995.8c0,1.1-0.9,2-2,2h-13.3c-1.1,0-2-0.9-2-2s0.9-2,2-2h13.3C-815.2,1993.8-814.3,1994.8-814.3,1995.8z
	 M-814.3,2002c0,1.1-0.9,2-2,2h-13.3c-1.1,0-2-0.9-2-2s0.9-2,2-2h13.3C-815.2,2000-814.3,2000.8-814.3,2002z M-814.3,2008
	c0,1.1-0.9,2-2,2h-13.3c-1.1,0-2-0.9-2-2s0.9-2,2-2h13.3C-815.2,2006-814.3,2007-814.3,2008z M-814.3,2014.2c0,1.1-0.9,2-2,2h-13.3
	c-1.1,0-2-0.9-2-2s0.9-2,2-2h13.3C-815.2,2012.2-814.3,2013-814.3,2014.2z M-814.3,2020.3c0,1.1-0.9,2-2,2h-13.3c-1.1,0-2-0.9-2-2
	s0.9-2,2-2h13.3C-815.2,2018.3-814.3,2019.2-814.3,2020.3z M-857.8,1995.8c0,1.1-0.9,2-2,2h-13.3c-1.1,0-2-0.9-2-2s0.9-2,2-2h13.3
	C-858.7,1993.8-857.8,1994.8-857.8,1995.8z M-857.8,2002c0,1.1-0.9,2-2,2h-13.3c-1.1,0-2-0.9-2-2s0.9-2,2-2h13.3
	C-858.7,2000-857.8,2000.8-857.8,2002z M-857.8,2008c0,1.1-0.9,2-2,2h-13.3c-1.1,0-2-0.9-2-2s0.9-2,2-2h13.3
	C-858.7,2006-857.8,2007-857.8,2008z M-857.8,2014.2c0,1.1-0.9,2-2,2h-13.3c-1.1,0-2-0.9-2-2s0.9-2,2-2h13.3
	C-858.7,2012.2-857.8,2013-857.8,2014.2z M-857.8,2020.3c0,1.1-0.9,2-2,2h-13.3c-1.1,0-2-0.9-2-2s0.9-2,2-2h13.3
	C-858.7,2018.3-857.8,2019.2-857.8,2020.3z"/>
</svg>
