<?xml version="1.0" encoding="utf-8"?>
<!-- Generator: Adobe Illustrator 19.0.1, SVG Export Plug-In . SVG Version: 6.00 Build 0)  -->
<svg version="1.1" id="Слой_1" xmlns="http://www.w3.org/2000/svg" xmlns:xlink="http://www.w3.org/1999/xlink" x="0px" y="0px"
	 viewBox="-909 1938 100 125" style="enable-background:new -909 1938 100 125;" xml:space="preserve">
<style type="text/css">
	.st0{fill:#06B005;}
</style>
<path class="st0" d="M-830.1,2020.4l3.5,2l0.1-0.2c4.9-6.8,7.5-14.9,7.5-23.4c0.1-10.9-4-21.1-11.6-28.7
	c-7.6-7.7-17.8-11.9-28.6-11.9c-22.3,0-40.4,18.1-40.4,40.4s18.1,40.4,40.4,40.4c3.9,0,7.6-0.5,11.1-1.6l0.2-0.1l-0.8-4l-0.3,0.1
	c-3.4,1-6.9,1.6-10.4,1.6c-20,0-36.3-16.3-36.3-36.3s16.3-36.3,36.3-36.3s36.3,16.3,36.3,36.3c0,7.7-2.4,15.1-7,21.5V2020.4z"/>
<path class="st0" d="M-825,1964.9c-9.2-9.1-21.3-14.2-34.2-14.2c-4.5,0-8.8,0.6-12.9,1.8l-0.2,0.1l0.7,3.7l0.3-0.1
	c4-1.1,8.1-1.7,12.1-1.7c24.5,0,44.5,19.9,44.5,44.5s-20,44.4-44.5,44.4c-24.5-0.1-44.4-20.1-44.4-44.5c0-9.3,2.8-18.1,8.2-25.7
	l0.2-0.2l-3.3-1.9l-0.1,0.2c-5.7,8.1-8.8,17.7-8.8,27.7c0,26.5,21.6,48.1,48.1,48.1c26.6,0,48.2-21.6,48.2-48.1
	C-811,1986.1-816,1974-825,1964.9z"/>
<path class="st0" d="M-859.3,1979.7c-7,0-12.6,5.7-12.6,12.6h7.2c0-3,2.4-5.4,5.4-5.4s5.4,2.4,5.4,5.4s-2.4,5.4-5.4,5.4h-3.6v10.2
	h7.2v-3.5c5.2-1.6,9-6.4,9-12.1C-846.7,1985.4-852.3,1979.7-859.3,1979.7z"/>
<rect x="-862.9" y="2012.5" class="st0" width="7.2" height="6.1"/>
</svg>
