<?xml version="1.0" encoding="utf-8"?>
<!-- Generator: Adobe Illustrator 19.0.1, SVG Export Plug-In . SVG Version: 6.00 Build 0)  -->
<svg version="1.1" id="Слой_1" xmlns="http://www.w3.org/2000/svg" xmlns:xlink="http://www.w3.org/1999/xlink" x="0px" y="0px"
	 viewBox="-927 1961 64 80" style="enable-background:new -927 1961 64 80;" xml:space="preserve">
<style type="text/css">
	.st0{fill:#0BB891;}
</style>
<path class="st0" d="M-865,2011.3v-29h-1v-4.6l-16.8-8.4h-3.2v7.4l-14.8-7.4h-3.2v7.4l-14.8-7.4h-3.2v13h-1v29h-2v20h62v-20H-865z
	 M-867,1984.3v6h-54v-6H-867z M-884,1971.3h0.8l15.2,7.6v3.4h-12v-2h-2v2h-2v-4.6V1971.3z M-902,1971.3h0.8l15.2,7.6v3.4h-12v-2h-2
	v2h-2v-4.6V1971.3z M-920,1971.3h0.8l15.2,7.6v3.4h-12v-2h-2v2h-2V1971.3z M-921,1992.3h54v19h-4v-5c0-3.9-3.1-7-7-7h-5v-2h-2v12h2
	v-2h3c0.6,0,1,0.4,1,1v3h-8v-5c0-3.9-3.1-7-7-7h-5v-2h-2v12h2v-2h3c0.6,0,1,0.4,1,1v3h-8v-5c0-3.9-3.1-7-7-7h-5v-2h-2v12h2v-2h3
	c0.6,0,1,0.4,1,1v3h-10V1992.3z M-877,2017.3v-9c0-1.7-1.3-3-3-3h-3v-4h5c2.8,0,5,2.2,5,5v11H-877z M-912,2005.3h-3v-4h5
	c2.8,0,5,2.2,5,5v11h-4v-9C-909,2006.6-910.3,2005.3-912,2005.3z M-903,2013.3h8v4h-8V2013.3z M-896,2005.3h-3v-4h5c2.8,0,5,2.2,5,5
	v11h-4v-9C-893,2006.6-894.3,2005.3-896,2005.3z M-887,2013.3h8v4h-8V2013.3z M-865,2029.3h-58v-16h12v4h-4v2h48v-2h-4v-4h6V2029.3z
	"/>
</svg>
